<svg id="visual" viewBox="0 0 1900 998" width="1900" height="998" xmlns="http://www.w3.org/2000/svg" xmlns:xlink="http://www.w3.org/1999/xlink" version="1.1"><rect x="0" y="0" width="1900" height="998" fill="#ffffff"></rect><defs><linearGradient id="grad1_0" x1="47.5%" y1="100%" x2="100%" y2="0%"><stop offset="11.923847695390783%" stop-color="#fbae3c" stop-opacity="1"></stop><stop offset="88.07615230460922%" stop-color="#fbae3c" stop-opacity="1"></stop></linearGradient></defs><defs><linearGradient id="grad1_1" x1="47.5%" y1="100%" x2="100%" y2="0%"><stop offset="11.923847695390783%" stop-color="#fbae3c" stop-opacity="1"></stop><stop offset="88.07615230460922%" stop-color="#ffffff" stop-opacity="1"></stop></linearGradient></defs><defs><linearGradient id="grad2_0" x1="0%" y1="100%" x2="52.5%" y2="0%"><stop offset="11.923847695390783%" stop-color="#fbae3c" stop-opacity="1"></stop><stop offset="88.07615230460922%" stop-color="#fbae3c" stop-opacity="1"></stop></linearGradient></defs><defs><linearGradient id="grad2_1" x1="0%" y1="100%" x2="52.5%" y2="0%"><stop offset="11.923847695390783%" stop-color="#ffffff" stop-opacity="1"></stop><stop offset="88.07615230460922%" stop-color="#fbae3c" stop-opacity="1"></stop></linearGradient></defs><g transform="translate(1900, 998)"><path d="M-449.1 0C-432 -55.2 -415 -110.5 -393.6 -163C-372.2 -215.6 -346.4 -265.5 -309.7 -309.7C-273 -354 -225.3 -392.6 -171.9 -414.9C-118.4 -437.2 -59.2 -443.2 0 -449.1L0 0Z" fill="#ffd69f"></path><path d="M-224.5 0C-216 -27.6 -207.5 -55.2 -196.8 -81.5C-186.1 -107.8 -173.2 -132.7 -154.9 -154.9C-136.5 -177 -112.7 -196.3 -85.9 -207.5C-59.2 -218.6 -29.6 -221.6 0 -224.5L0 0Z" fill="#fbae3c"></path></g><g transform="translate(0, 0)"><path d="M449.1 0C443.8 59.7 438.4 119.4 414.9 171.9C391.4 224.4 349.7 269.7 304.8 304.8C259.8 339.9 211.7 364.8 160.3 387.1C109 409.5 54.5 429.3 0 449.1L0 0Z" fill="#ffd69f"></path><path d="M224.5 0C221.9 29.8 219.2 59.7 207.5 85.9C195.7 112.2 174.8 134.8 152.4 152.4C129.9 169.9 105.8 182.4 80.2 193.6C54.5 204.7 27.3 214.6 0 224.5L0 0Z" fill="#fbae3c"></path></g></svg>